# xmcd CD database file
#
# Track frame offsets:
#	150
#	68191
#	159250
#
# Disc length: 3524 seconds
#
# Revision: 0
# Processed by: cddbd v1.5.2PL0 Copyright (c) Steve Scherf et al.
# Submitted via: CDex 1.70beta3
#
DISCID=1c0dc203
DTITLE=Tyshawn Sorey - The Inner Spectrum of Variable - 2
DYEAR=2015
DGENRE=Jazz
TTITLE0=Reverie
TTITLE1=Movement IV
TTITLE2=Movement V and VI and Reprise
EXTD=YEAR: 2015
EXTT0=
EXTT1=
EXTT2=
PLAYORDER=
